# xmcd
#
# Track frame offsets:
#	150
#	18381
#	28203
#	42845
#	47401
#	60706
#	69047
#	84531
#	102963
#	120745
#	136135
#	138939
#	153200
#	165357
#	181533
#
# Disc length: 2522 seconds
#
# Revision: 3
# Processed by: cddbd v1.4PL0 Copyright (c) Steve Scherf et al.
# Submitted via: dBpowerAMP V4.0
#
DISCID=b009d80f
DTITLE=La Tordue - Les Choses de Rien
DYEAR=1995
DGENRE=Chanson
TTITLE0=Paris, Oct 67
TTITLE1=Les Mots
TTITLE2=La Polka
TTITLE3=La P'tite Valse
TTITLE4=Le Brouillard
TTITLE5=Les Rats
TTITLE6=INRI
TTITLE7=La Valse Petite
TTITLE8=Bondieu !
TTITLE9=Sur le Pressoir
TTITLE10=Hop !
TTITLE11=Ton Cul
TTITLE12=La Bête
TTITLE13=La Rose et le Réséda
TTITLE14=Hastaluego
EXTD=
EXTT0=
EXTT1=
EXTT2=
EXTT3=
EXTT4=
EXTT5=
EXTT6=
EXTT7=
EXTT8=
EXTT9=
EXTT10=
EXTT11=
EXTT12=
EXTT13=
EXTT14=
PLAYORDER=
